<svg xmlns="http://www.w3.org/2000/svg" xmlns:xlink="http://www.w3.org/1999/xlink" viewBox="0 0 175.51684 205.25451"><defs><style>.cls-1{fill:url(#Orange_Purple_Red);}</style><linearGradient id="Orange_Purple_Red" x1="31.18748" y1="40.38644" x2="143.80227" y2="105.40462" gradientUnits="userSpaceOnUse"><stop offset="0" stop-color="#fdba56"/><stop offset="0.01733" stop-color="#fbb055"/><stop offset="0.05976" stop-color="#f79d54"/><stop offset="0.10345" stop-color="#f59253"/><stop offset="0.15" stop-color="#f48e53"/><stop offset="0.3" stop-color="#ed5e4e"/><stop offset="0.47" stop-color="#683a96"/><stop offset="0.64" stop-color="#ed872b"/><stop offset="0.79" stop-color="#7b76b6"/><stop offset="0.9" stop-color="#f15f4f"/><stop offset="1" stop-color="#fdba56"/></linearGradient></defs><g id="Layer_5" data-name="Layer 5"><path class="cls-1" d="M61.88164,24.935A89.76418,89.76418,0,0,0,78.59789,14.21765a87.91713,87.91713,0,0,0,6.50836-5.96819c1.06579-1.07282,2.08192-2.195,3.07758-3.2494A10.92138,10.92138,0,0,1,91.08973,7.533,90.16823,90.16823,0,0,0,105.69091,19.5483a82.45285,82.45285,0,0,0,30.56664,12.0204c1.0979.20821,2.20656.35927,3.30982.53941,1.84125.30065,1.86222.30153,1.868,2.28953.014,4.79739.00647,9.59487.00738,14.3923.00038,2.07888.14973,4.17182-.04339,6.23259-.18126,1.93447.65537,3.04078,2.10117,4.145a110.50183,110.50183,0,0,1,15.65,14.46891c.10614.11962.21512.23669.32059.3569,1.66319,1.89542,1.644,1.87887-.04851,3.82459a112.0068,112.0068,0,0,1-16.54014,15.26236,5.14381,5.14381,0,0,0-2.00294,3.30252,36.44158,36.44158,0,0,1-10.432,18.72883c-1.52944,1.47776-2.80125,3.18747-4.34118,4.69629-6.74394,6.6078-14.57239,11.65208-22.6515,16.36753a144.60572,144.60572,0,0,1-13.24009,6.72094,3.73982,3.73982,0,0,1-3.39381.04233,146.09512,146.09512,0,0,1-25.51029-14.657c.22817-3.41675,1.045-6.80748.26728-10.26958a1.9515,1.9515,0,0,1,.79772-1.86364c.25867.18326.525.35886.77737.55251a135.41515,135.41515,0,0,0,23.77046,14.49936c.77306.37254,1.45746.82851,2.4436.327,7.45963-3.79407,14.794-7.7582,21.471-12.88791a81.54477,81.54477,0,0,0,9.32444-7.70511,31.93043,31.93043,0,0,0,5.395-6.53341c-3.34154,1.63055-6.27656,3.05411-9.30287,4.27705-16.19359,6.54384-32.63641,7.73192-49.3915,2.32755.05736-.94954.15949-1.89887.16426-2.84868.01916-3.81478-.00058-7.62976.01518-11.44457.00352-.85092-.20183-1.7794.63407-2.42212.57076.55963,1.12887,1.13283,1.71419,1.67678a27.62566,27.62566,0,0,0,32.06632,3.82852c11.33707-6.30577,15.98939-19.87937,13.26126-30.22478a28.0392,28.0392,0,0,0-9.78905-15.14942,25.65246,25.65246,0,0,0-13.80853-5.79448A27.66554,27.66554,0,0,0,74.1077,52.29021,28.24146,28.24146,0,0,0,63.30286,63.88639a6.04786,6.04786,0,0,1-.51518-2.54848c.03477-6.39141.03105-12.783.03961-19.17458,1.04338-.3839,2.076-.80086,3.13186-1.1465a69.1972,69.1972,0,0,1,27.8725-3.47118,83.46067,83.46067,0,0,1,28.11994,8.07059c2.4571,1.152,4.80838,2.5292,7.21275,3.79444.46995.24733.89719.72944,1.67.26977,0-2.05776.00721-4.20405-.00193-6.35028-.01049-2.45716.0638-1.95671-2.02512-2.453a96.12616,96.12616,0,0,1-21.06557-7.7911A89.43741,89.43741,0,0,1,89.78186,20.89675c-.95426-.8189-1.60767-1.0033-2.57933-.05358a62.89542,62.89542,0,0,1-8.29735,6.32227,77.09906,77.09906,0,0,1-16.4374,8.81977c-.79866-.56558-.59818-1.4173-.60044-2.192C61.85873,30.84056,61.87479,27.88778,61.88164,24.935ZM123.113,59.08976a40.1729,40.1729,0,0,1-.29145,33.762,5.31476,5.31476,0,0,0,.89189-.2691,120.24513,120.24513,0,0,0,21.19966-15.796c.84214-.77514.6191-1.22859-.09357-1.88517a126.72779,126.72779,0,0,0-11.461-9.43939A69.53866,69.53866,0,0,0,123.113,59.08976ZM63.30245,63.88689a1.83037,1.83037,0,0,1-.06993.47118,27.16148,27.16148,0,0,0-.16535,22.54c.275.63525.1776,1.31681.70541,1.95838,1.414,1.71864,2.61718,3.61061,3.9041,5.43372-.8359.64272-.63055,1.5712-.63407,2.42212-.01576,3.81481.004,7.62979-.01518,11.44457-.00477.94981-.1069,1.89914-.16359,2.84865a73.124,73.124,0,0,1-12.48041-4.77322c-.70108-.31682-1.3273-.94488-2.2142-.66826.07262-.19664.01655-.29066-.167-.27167a.424.424,0,0,0,.00024.14806c.06908.31246-.04014-.11358.20678.09.318,1.228,1.33986,1.94157,2.10767,2.8295,2.45224,2.83582,5.35817,5.20808,8.06,7.78934a1.94843,1.94843,0,0,0-.7989,1.86293c1.21188,3.83893-.03911,6.85283-.26728,10.26958a46.215,46.215,0,0,1-7.24465-5.46586,63.93506,63.93506,0,0,1-13.22385-14.75063,31.13488,31.13488,0,0,1-4.558-10.7379,6.3933,6.3933,0,0,0-2.8277-4.14061A114.556,114.556,0,0,1,17.70976,78.87436c-2.74069-3.02063-2.725-3.021-.056-5.97124a115.15084,115.15084,0,0,1,16.13265-14.6057,3.92413,3.92413,0,0,0,1.69573-3.609c-.05894-6.79049-.03064-13.58181-.018-20.37282.00352-1.88271.02028-1.9399,1.68639-2.18579a87.37192,87.37192,0,0,0,24.26025-7.12843,1.64855,1.64855,0,0,1,.47019-.06612c-.00618,2.95251.37053,8.43571-.01363,8.858a8.04591,8.04591,0,0,0,.5991,2.19232s-3.93085,1.69778-5.95222,2.40574A93.95637,93.95637,0,0,1,47.3735,41.07c-.61927.14863-1.28973.24888-1.28827,1.1258.00413,2.44166.00141,4.88332.00141,7.62185.79459-.385,1.28115-.6095,1.75775-.85336,2.76911-1.417,5.49911-2.91748,8.31548-4.23311a30.80558,30.80558,0,0,1,6.66742-2.56782m-9.4757,16.80458a7.14046,7.14046,0,0,0-.95906.27536,115.30006,115.30006,0,0,0-20.884,15.53966c-1.1253,1.032-1.11457,1.116.05525,2.21247A113.85336,113.85336,0,0,0,51.81257,92.19351c.36832.2163.76819.66238,1.33611-.00644a36.94213,36.94213,0,0,1-3.5615-16.23663A41.53874,41.53874,0,0,1,53.35159,58.96791ZM80.91208,77.43125c-5.166,1.12166-9.265-.47229-12.166-5.12991a12.77608,12.77608,0,0,0-.19075,8.02081c1.77509,6.81463,5.63133,11.85461,12.52588,14.17735,8.25161,3.60466,18.3131.304,23.49648-7.187a20.19007,20.19007,0,0,0-1.54011-24.82273c-5.3018-5.99953-14.8546-8.775-23.03989-4.7848a10.74417,10.74417,0,0,0,1.935,1.27421c3.7926,1.39184,5.32146,4.55488,5.75678,8.25241A9.9796,9.9796,0,0,1,80.91208,77.43125ZM52.16923,105.564c.07262-.19664.01655-.29066-.167-.27167a.424.424,0,0,0,.00024.14806c.06908.31246-.04014-.11358.20678.09ZM81.05144,90.9418c.02,1.18553.01922,2.37147.02889,3.55747,8.25249,3.60489,18.314.30421,23.49736-7.18679a20.19007,20.19007,0,0,0-1.54011-24.82273c-5.3018-5.99953-14.8546-8.775-23.03989-4.7848a10.74417,10.74417,0,0,0,1.935,1.27421c3.7926,1.39184,5.32146,4.55488,5.75678,8.25241a9.9796,9.9796,0,0,1-6.77742,10.19968C81.2209,81.932,80.9753,86.43858,81.05144,90.9418ZM68.74608,72.30134a12.77608,12.77608,0,0,0-.19075,8.02081c1.77509,6.81463,5.63133,11.85461,12.525,14.17712-.00967-1.186-.00885-2.37194-.02889-3.55747-.07614-4.50322.16946-9.00979-.13936-13.51055C75.746,78.55291,71.647,76.959,68.74608,72.30134Z"/></g></svg>